<svg version="1.1" xmlns="http://www.w3.org/2000/svg" viewBox="0 0 228 370.5" width="228" height="370.5">
  <!-- svg-source:excalidraw -->
  
  <defs>
    <style>
      @font-face {
        font-family: "Virgil";
        src: url("https://excalidraw.com/Virgil.woff2");
      }
      @font-face {
        font-family: "Cascadia";
        src: url("https://excalidraw.com/Cascadia.woff2");
      }
    </style>
  </defs>
  <g stroke-linecap="round" transform="translate(11 12) rotate(0 101.5 50.5)"><path d="M-0.38 1.49 C62.31 -1.32, 121.04 1.31, 204.13 1.56 M0.49 -0.21 C65.96 -2.25, 131.35 -1.8, 202.37 0.04 M201.13 0.69 C205.5 40.19, 205.78 78.6, 204.16 100.42 M202.79 0.7 C202.76 34.54, 203.69 71.84, 202.95 101.17 M203.11 101.48 C140.9 103.4, 77.06 103.75, 0.77 100.33 M202.93 100.99 C148.26 100.38, 92.55 100.01, 0.26 100.89 M1.98 99.34 C0.98 78.89, 1.39 59.1, 0.1 -0.41 M0.03 100.65 C1.53 78.81, 0.85 55.57, 0.53 -0.18" stroke="#000000" stroke-width="1" fill="none"></path></g><g transform="translate(23 10) rotate(0 66.5 50)"><text x="0" y="18" font-family="Virgil, Segoe UI Emoji" font-size="20px" fill="#000000" text-anchor="start" style="white-space: pre;" direction="ltr">universe block</text><text x="0" y="43" font-family="Virgil, Segoe UI Emoji" font-size="20px" fill="#000000" text-anchor="start" style="white-space: pre;" direction="ltr"></text><text x="0" y="68" font-family="Virgil, Segoe UI Emoji" font-size="20px" fill="#000000" text-anchor="start" style="white-space: pre;" direction="ltr">- len</text><text x="0" y="93" font-family="Virgil, Segoe UI Emoji" font-size="20px" fill="#000000" text-anchor="start" style="white-space: pre;" direction="ltr">- float64</text></g><g stroke-linecap="round" transform="translate(16 147.5) rotate(0 101 39.5)"><path d="M-0.68 -1.58 C52.35 0.7, 103.57 2.12, 200.65 -1.13 M-0.21 -0.69 C62.56 -2.18, 126.6 -2.2, 201.41 0.48 M203.09 -0.53 C200.79 17.22, 203.71 35.12, 203.4 77.48 M202.04 -0.72 C201.96 29.23, 202.24 58.25, 203 78.13 M201.53 78.37 C156.25 78.47, 110.71 79.55, 1.23 78.39 M202.81 78.67 C157.48 79.27, 114.46 79.15, 0.09 79.68 M1.99 78.25 C1.64 57.69, 1.1 37.7, -1.76 -1.92 M0.35 78.79 C1.54 62.47, 1.2 46.76, -0.2 0.05" stroke="#000000" stroke-width="1" fill="none"></path></g><g transform="translate(25 148.5) rotate(0 67 37.5)"><text x="0" y="18" font-family="Virgil, Segoe UI Emoji" font-size="20px" fill="#000000" text-anchor="start" style="white-space: pre;" direction="ltr">package block</text><text x="0" y="43" font-family="Virgil, Segoe UI Emoji" font-size="20px" fill="#000000" text-anchor="start" style="white-space: pre;" direction="ltr"></text><text x="0" y="68" font-family="Virgil, Segoe UI Emoji" font-size="20px" fill="#000000" text-anchor="start" style="white-space: pre;" direction="ltr">- scale</text></g><g stroke-linecap="round" transform="translate(10 261.5) rotate(0 100.5 49.5)"><path d="M-0.63 0.09 C41.54 1.94, 85.59 1.63, 200.69 -0.84 M-0.51 0.81 C74.08 -2.37, 150.66 -2.28, 201.8 -0.37 M199.98 0.21 C200.17 31.78, 202.5 67.37, 200.44 97.45 M200.01 0.04 C201.26 27.56, 200.36 55.42, 201.05 98.07 M200.94 98.72 C133.82 100.41, 63.29 101.83, 0.57 97.88 M200.66 99.19 C154.37 100.83, 109.32 99.55, -0.73 99.6 M0.34 100.91 C-0.26 69.71, -1.52 40.76, 0.69 0.61 M-0.51 99.29 C0.69 74.81, 0.42 51.58, -0.4 -0.09" stroke="#000000" stroke-width="1" fill="none"></path></g><g transform="translate(22 259.5) rotate(0 66.5 50)"><text x="0" y="18" font-family="Virgil, Segoe UI Emoji" font-size="20px" fill="#000000" text-anchor="start" style="white-space: pre;" direction="ltr">function block</text><text x="0" y="43" font-family="Virgil, Segoe UI Emoji" font-size="20px" fill="#000000" text-anchor="start" style="white-space: pre;" direction="ltr"></text><text x="0" y="68" font-family="Virgil, Segoe UI Emoji" font-size="20px" fill="#000000" text-anchor="start" style="white-space: pre;" direction="ltr">- sum</text><text x="0" y="93" font-family="Virgil, Segoe UI Emoji" font-size="20px" fill="#000000" text-anchor="start" style="white-space: pre;" direction="ltr">- values</text></g></svg>