<?xml version="1.0" encoding="UTF-8"?>
<svg id="Layer_1" xmlns="http://www.w3.org/2000/svg" version="1.1" viewBox="0 0 133 159">
  <!-- Generator: Adobe Illustrator 30.0.0, SVG Export Plug-In . SVG Version: 2.1.1 Build 123)  -->
  <defs>
    <style>
      .st0 {
        fill: #ff5337;
      }

      .st1 {
        stroke: #0d1544;
        stroke-linecap: round;
        stroke-linejoin: round;
        stroke-width: 7.1px;
      }

      .st1, .st2 {
        fill: #0d1544;
      }

      .st3 {
        fill: #fff;
      }
    </style>
  </defs>
  <path class="st1" d="M129.1,51.7c.2-.7,0-1.4-.6-1.9L70.9,5.8c-2.7-2-6.4-2-9,0L4.3,49.8c-.6.4-.8,1.2-.6,1.9l4.1,14.5,2.6,9.3,1.3,4.9h-5.5c-1.1,0-2,1-1.7,2.1l6.7,33.2c.2.8.9,1.4,1.7,1.4h8.4l1.3,4.9,3.9,13.9c.1.5.5.9,1,1.1l38.2,17.5c.5.2,1,.2,1.5,0l38.4-17.6c.3-.2.6-.4.7-.8l4-14.2,1.3-4.9h8.7c.9,0,1.6-.6,1.7-1.4l6.4-33.2c.2-1.1-.6-2.1-1.7-2.1h-5.5l1.3-4.9,6.7-23.8h0Z"/>
  <path class="st3" d="M122.3,75.5h-2.6l6.5-22.9c.2-.7,0-1.4-.6-1.9L70.9,8.9c-2.7-2-6.4-2-9,0L7.2,50.7c-.6.4-.8,1.2-.6,1.9l6.5,22.9h-2.6l-6.7-23.8c-.2-.7,0-1.4.6-1.9L61.9,5.8c2.7-2,6.4-2,9,0l57.5,44c.6.4.8,1.2.6,1.9l-6.7,23.8Z"/>
  <path class="st3" d="M65.6,154.6l-38.2-17.5c-.5-.2-.8-.6-1-1.1l-3.9-13.9h2.6l3.4,12.1c.1.5.5.9,1,1.1l36.1,16.6c.5.2,1,.2,1.5,0l36.3-16.7c.3-.2.6-.4.7-.8l3.5-12.4h2.6l-4,14.2c0,.3-.3.6-.7.8l-38.4,17.6c-.5.2-1,.2-1.5,0h0Z"/>
  <path class="st3" d="M41.7,122l.8,2.7c0,.3.3.6.6.7l22.6,10.1c.4.2.9.2,1.4,0l22.6-10.1c.3,0,.6-.4.6-.7l.8-2.7s-49.4,0-49.4,0Z"/>
  <path class="st3" d="M64.6,28.3l-40.1,29.4,5,17.8h73.9l5-17.8-40.1-29.4c-1.1-.8-2.5-.8-3.6,0,0,0,0,0-.1,0Z"/>
  <path class="st3" d="M85,104.4v.5c0,.9.3,1.1.7,1.1h2.1c.6,0,.9-.4.9-1.5v-1.4h-3c-.4,0-.7.5-.7,1.3h0Z"/>
  <path class="st3" d="M99.3,97.6h-1.4c-.7,0-1.1.4-1.1,1.4v5.5c0,1,.4,1.5,1.1,1.5h1.4c.7,0,1.1-.5,1.1-1.6v-5.1c0-1.2-.4-1.7-1.1-1.7Z"/>
  <path class="st3" d="M22,102.2h3.7l-1.9-8.1-1.9,8.1h0Z"/>
  <path class="st3" d="M45.9,99.1c0-1-.4-1.5-1.1-1.5h-1.4c-.7,0-1.1.5-1.1,1.6v5.2c0,1.2.4,1.6,1.1,1.6h1.4c.7,0,1.1-.4,1.1-1.4v-5.5h0Z"/>
  <path class="st3" d="M56.9,103.1h-3c-.4,0-.7.5-.7,1.3v.5c0,.9.3,1.1.7,1.1h2.1c.6,0,.9-.4.9-1.5v-1.4h0Z"/>
  <path class="st0" d="M116.7,75.5h-8.8l4.9-18.6c.2-.7,0-1.4-.6-1.9l-41.3-31.4c-2.7-2-6.3-2-9,0l-41.3,31.4c-.6.4-.8,1.2-.6,1.9l4.9,18.6h-8.8l-5.8-21.8c-.2-.7,0-1.4.6-1.9L61.9,13c2.7-2,6.3-2,9,0l50.9,38.8c.6.4.8,1.2.6,1.9l-5.8,21.8h0Z"/>
  <path class="st0" d="M65.6,149.2l-33.8-15.8c-.5-.2-.8-.6-1-1.1l-3.1-10.3h8.7l1.3,4.2c0,.5.5.9,1,1.1l26.8,12.5c.5.2,1,.2,1.5,0l27.1-12.6c.3-.2.6-.4.7-.8l1.3-4.5h8.7l-3.1,10.5c0,.3-.3.6-.7.8l-34,15.9c-.5.2-1,.2-1.5,0h0Z"/>
  <path class="st0" d="M35.4,68.7h24.6c.6,0,1.5-.3,1.9-.7l7.1-6.6c.4-.4.8-1.2.8-1.8v-22.7c0-.6-.4-.7-.8-.3l-34,31.4c-.4.4-.3.7.3.7h.1Z"/>
  <path class="st2" d="M82.8,68.7h10.6c.6,0,.8-.3.3-.8l-20.1-18.6c-.5-.4-.8-.3-.8.3v9.8c0,.6.4,1.4.8,1.8l7.2,6.7c.4.4,1.3.8,2,.8Z"/>
  <path class="st3" d="M126.6,80.4H6.2c-1.1,0-2,1-1.7,2.1l6.7,33.2c.2.8.9,1.4,1.7,1.4h107.3c.9,0,1.6-.6,1.8-1.4l6.4-33.2c.2-1.1-.6-2.1-1.8-2.1Z"/>
  <path class="st0" d="M81.8,106.1l.2,3h-1.5c-2,0-3-1.1-3-3.3v-16.7l2.5-.6h.5v16.5c0,.9.3,1.3.9,1.3h.4v-.2Z"/>
  <path class="st0" d="M89.5,107.5c-.6,1.2-1.1,1.4-2.5,1.4h-1.5c-1.9,0-2.8-1.1-2.8-3.4v-2c0-2.1.9-3.2,2.8-3.2h3.7v-1.4c0-.9-.3-1.3-.9-1.3h-1.5c-.6,0-.9.4-.9,1.3v.3h-2.8v-1.2c0-2.2.9-3.3,2.8-3.3h3.2c2,0,3,1.1,3,3.3v10.9h-2.5l-.2-1.4s0,0,.1,0ZM88.3,105.9c.6,0,1-.4,1-1.5v-1.4h-3c-.4,0-.7.5-.7,1.3v.5c0,.9.3,1.1.7,1.1h2.1,0Z"/>
  <path class="st0" d="M97.3,107.7v1.2h-3v-19.9l2.5-.6h.5v7.4c.6-.8,1.4-1,2.4-1h1.2c2,0,3,1.2,3,3.5v7c0,2.5-1,3.7-3.2,3.7h-1c-1.3,0-2-.3-2.4-1.2h0ZM97.3,104.5c0,1.1.4,1.5,1.1,1.5h1.5c.8,0,1.1-.5,1.1-1.6v-5.1c0-1.2-.4-1.7-1.1-1.7h-1.5c-.7,0-1.1.4-1.1,1.4v5.6h0Z"/>
  <path class="st0" d="M109.2,97.4c-.4,0-.7.3-.7,1.1v.3c0,.7.3.9.9,1.1l2.5.8c2.2.6,2.8,1.1,2.8,3.4v1.6c0,2.4-1.1,3.1-3.5,3.1h-2.2c-2.8,0-3.5-.9-3.5-3.6v-.8h2.8v.5c0,.8.2,1.1.7,1.1h2.3c.4,0,.7-.3.7-1.1v-.3c0-.7-.3-.9-.9-1.1l-2.5-.8c-2.6-.8-2.8-1.5-2.8-3.8v-1.1c0-2.4.6-3.4,3.5-3.4h1.8c2.9,0,3.5.9,3.5,3.7v.9h-2.8v-.7c0-.8-.2-1.1-.7-1.1h-1.9s0,.2,0,.2Z"/>
  <path class="st2" d="M46,89v6.9c-.5-.9-1-1.1-2.2-1.1h-1.2c-2.2,0-3.2,1.3-3.2,3.9v6.8c0,2.3,1,3.5,3,3.5h1.2c1.6,0,2.3-.5,2.6-1.6l.3,1.6h2.5v-20.6h-.5l-2.5.6h0ZM46,104.6c0,1-.5,1.4-1.1,1.4h-1.4c-.8,0-1.1-.5-1.1-1.6v-5.2c0-1.2.4-1.6,1.1-1.6h1.5c.7,0,1.1.5,1.1,1.5v5.5h0Z"/>
  <path class="st2" d="M22.2,89.2l-5.2,19.7h3.4l.8-3.5h5.3l.8,3.5h3.3l-5.2-19.7h-3.2,0ZM21.9,102.2l1.9-8.1,1.9,8.1h-3.8Z"/>
  <path class="st2" d="M37.9,94.4l-2.3.8c-.6.2-1,.7-1.3,1.3v-1.7h-.5l-2.3.6v13.4h3v-8.9c0-1.1.3-1.5,1.1-1.8l2.6-.9-.2-2.9h-.2.1Z"/>
  <path class="st2" d="M57.1,94.7h-3.2c-1.9,0-2.8,1.1-2.8,3.3v1.2h2.8v-.3c0-.9.3-1.3.9-1.3h1.5c.6,0,.9.4.9,1.3v1.4h-3.7c-1.9,0-2.8,1.1-2.8,3.2v2c0,2.3.9,3.4,2.8,3.4h1.5c1.4,0,1.9-.3,2.5-1.4l.2,1.4h2.5v-10.9c0-2.2-1-3.3-3-3.3,0,0,0,0-.1,0ZM57.2,104.4c0,1-.3,1.5-1,1.5h-2.1c-.4,0-.7-.2-.7-1.1v-.5c0-.8.3-1.3.7-1.3h3v1.4h0Z"/>
  <path class="st2" d="M68.6,94.7h-1.2c-1.3,0-2,.3-2.5,1.3v-1.1h-.5l-2.3.6v13.4h3v-10.1c0-.8.5-1.4,1.1-1.4h1.2c.8,0,1.1.5,1.1,1.6v9.8h3v-10.7c0-2.3-1-3.5-3-3.5h0Z"/>
</svg>