<?xml version="1.0"?>
<svg xmlns:rdf="http://www.w3.org/1999/02/22-rdf-syntax-ns#" xmlns="http://www.w3.org/2000/svg" xmlns:cc="http://web.resource.org/cc/" xmlns:dc="http://purl.org/dc/elements/1.1/" xmlns:sodipodi="http://inkscape.sourceforge.net/DTD/sodipodi-0.dtd" xmlns:svg="http://www.w3.org/2000/svg" id="svg2" viewBox="0 0 264 193" sodipodi:version="0.32" sodipodi:docname="Bulle_droite_question.svg" sodipodi:docbase="/home/f5soh/Swf/Svg_perso">
  <sodipodi:namedview id="base" bordercolor="#666666" borderopacity="1.0" pagecolor="#ffffff"/>
  <path id="path4" opacity=".34918" fill-opacity=".63158" d="m103 10.031c46 1 93 24 94 69 0 21.999-13 36.999-32 45.999 9 2 16 7 16 13 0 4-2 6-5 8 4 0 7 2 7 5 0 5-15 5-15-1v-1c-14 4-35-1-36-12v-1c-53 8-120-15-122-63.999 0-42 46-63 93-62"/>
  <path id="path6" stroke="#000" stroke-width="3" fill="#fff" d="m12 67.031c4 82.999 183 91.999 185 8-2-75.998-185-78.998-185-8z"/>
  <path id="path8" stroke="#000" stroke-width="3" fill="#fff" d="m131 135.03c1 17 47 19 48 2-1-19-48-19-48-2z"/>
  <path id="path10" stroke="#000" stroke-width="3" fill="#fff" d="m169 149.03c0 5 14 6 14 0s-14-6-14 0z"/>
  <path id="path12" stroke-linejoin="round" d="m222 166.03c17.63-18.81 33.1-14.27 16.16-36.95" sodipodi:nodetypes="cc" stroke="#000" stroke-linecap="round" stroke-width="5" fill="none"/>
  <path id="path14" stroke="#000" stroke-width="3" fill="#f9e1e1" d="m196 141.03c-5 1-9 10-7 17 1 8 8 14 12 13 5-1 9-9 7-17-1-7-8-14-12-13z"/>
  <path id="path16" stroke="#000" stroke-width="3" fill="#f7dfdf" d="m223 142.03c-5-1-12 5-14 12s1 16 5 17c5 1 12-4 14-12 3-7 0-15-5-17z"/>
  <path id="path18" d="m199.24 159.41c-2 0-2 3-2 5 1 2 4 4 5 3 2-1 2-3 2-5-1-2-4-4-5-3z" stroke="#000" fill="#1a1a1a"/>
  <path id="path20" d="m217.59 158.62c-1 0-4 1-5 3 0 2 0 5 2 6 1 0 4-1 5-3 0-2 0-5-2-6z" stroke="#000" fill="#1a1a1a"/>
  <path id="path22" stroke-linejoin="round" d="m231.97 142.7c-4.43-7.37-16.44-20.37-20.7-4.65" stroke="#000" stroke-linecap="round" stroke-width="3" fill="none"/>
  <path id="path24" stroke-linejoin="round" d="m187.28 140.54c6.51-6.53 22.15-14.37 19.94 1.51" stroke="#000" stroke-linecap="round" stroke-width="3" fill="none"/>
  <path id="path26" stroke="#000" stroke-width="3" fill="#e5e5e5" d="m227 176.03c-3 0-5 1-5 3 0 1 2 2 5 2 2 0 4-1 4-2 0-2-2-3-4-3z"/>
  <path id="path28" stroke="#000" stroke-width="3" fill="#e5e5e5" d="m191 174.03c-2 0-4 2-4 4s2 3 4 3 4-1 4-3-2-4-4-4z"/>
  <path id="path30" stroke="#000" stroke-width="3" fill="#e5e5e5" d="m218 174.03c-2 0-4 2-4 4s2 4 4 4 4-2 4-4-2-4-4-4z"/>
  <path id="path32" stroke="#000" stroke-width="3" fill="#e5e5e5" d="m184 177.03c-2 0-4 1-4 2 0 2 2 3 4 3s4-1 4-3c0-1-2-2-4-2z"/>
  <path id="path34" stroke="#000" stroke-width="3" fill="#e5e5e5" d="m199 175.03c-2 0-3 2-3 3 0 2 1 3 3 3 1 0 3-1 3-3 0-1-2-3-3-3z"/>
  <path id="path36" stroke-linejoin="round" d="m237.42 127.4c-12.64-8.23-10.45-4.54-14.08-3.48" sodipodi:nodetypes="cc" stroke="#000" stroke-linecap="round" stroke-width="3" fill="none"/>
  <path id="path38" stroke-linejoin="round" d="m239.47 128.95s0.08-10.07-3.48-11.71" sodipodi:nodetypes="cz" stroke="#000" stroke-linecap="round" stroke-width="3" fill="none"/>
  <path id="path40" stroke-linejoin="round" d="m227.69 128.98c-1.17-1.47 6.75-2.91 8.83-0.28" sodipodi:nodetypes="cc" stroke="#000" stroke-linecap="round" stroke-width="2.7566" fill="none"/>
  <path id="path42" stroke-linejoin="round" d="m238.16 127.49c-5-8-2-6-7-8" stroke="#000" stroke-linecap="round" stroke-width="3" fill="none"/>
  <path id="path2222" stroke-linejoin="round" style="color:#000000" d="m216.44 82.502c-3.85-6.448 6.15-12.249 13.72-9.639 7.58 2.61 11.33 9.567 2.3 17.533-3.78 3.337-11.94 3.079-13.52 12.204m-2.69 9.5c-2.2 1.69-0.1-3.74 0.11-0.03" sodipodi:nodetypes="czsscc" stroke="#000" stroke-linecap="round" stroke-width="5.422" fill="none"/>
  <path id="path4845" stroke-linejoin="round" style="color:#000000" d="m217.36 82.96c-3.85-6.449 6.14-12.249 13.72-9.639 7.57 2.61 11.32 9.567 2.29 17.533-3.78 3.337-11.93 3.079-13.52 12.206" stroke-opacity=".34903" sodipodi:nodetypes="czss" stroke="#000" stroke-linecap="round" stroke-width="5.422" fill="none"/>
  <path id="path7466" sodipodi:rx="1.1447213" sodipodi:ry="1.3736655" sodipodi:type="arc" d="m216.81 109.89a1.1447 1.3737 0 1 1 -2.29 0 1.1447 1.3737 0 1 1 2.29 0z" stroke-opacity=".34903" fill-opacity=".63158" stroke-linejoin="round" sodipodi:cy="109.89324" transform="translate(.68683 2.5184)" stroke-dashoffset="2.4507" stroke="#000" stroke-linecap="round" stroke-width="5.422" sodipodi:cx="215.66548"/>
  <metadata>
    <rdf:RDF>
      <cc:Work>
        <dc:format>image/svg+xml</dc:format>
        <dc:type rdf:resource="http://purl.org/dc/dcmitype/StillImage"/>
        <cc:license rdf:resource="http://creativecommons.org/licenses/publicdomain/"/>
        <dc:publisher>
          <cc:Agent rdf:about="http://openclipart.org/">
            <dc:title>Openclipart</dc:title>
          </cc:Agent>
        </dc:publisher>
        <dc:title>Bulle droite question</dc:title>
        <dc:date>2006-09-18T06:53:02</dc:date>
        <dc:description>Speech bubble with a question mark.</dc:description>
        <dc:source>http://openclipart.org/detail/153/bulle-droite-question-by-technoargia</dc:source>
        <dc:creator>
          <cc:Agent>
            <dc:title>technoargia</dc:title>
          </cc:Agent>
        </dc:creator>
        <dc:subject>
          <rdf:Bag>
            <rdf:li>black &amp; white</rdf:li>
            <rdf:li>callout</rdf:li>
            <rdf:li>cartoon</rdf:li>
            <rdf:li>clip art</rdf:li>
            <rdf:li>clipart</rdf:li>
          </rdf:Bag>
        </dc:subject>
      </cc:Work>
      <cc:License rdf:about="http://creativecommons.org/licenses/publicdomain/">
        <cc:permits rdf:resource="http://creativecommons.org/ns#Reproduction"/>
        <cc:permits rdf:resource="http://creativecommons.org/ns#Distribution"/>
        <cc:permits rdf:resource="http://creativecommons.org/ns#DerivativeWorks"/>
      </cc:License>
    </rdf:RDF>
  </metadata>
</svg>
